<svg width="967" height="702" viewBox="0 0 967 702" fill="none" xmlns="http://www.w3.org/2000/svg">
<line x1="22.5" y1="2.18557e-08" x2="22.5" y2="702" stroke="#99928c"/>
<line x1="967" y1="34.7845" y2="34.7845" stroke="#99928c"/>
<line x1="967" y1="140.275" y2="140.275" stroke="#99928c"/>
<line x1="967" y1="245.766" y2="245.766" stroke="#99928c"/>
<line x1="967" y1="351.257" y2="351.257" stroke="#99928c"/>
<line x1="967" y1="456.748" y2="456.748" stroke="#99928c"/>
<line x1="967" y1="562.239" y2="562.239" stroke="#99928c"/>
<line x1="967" y1="667.73" y2="667.73" stroke="#99928c"/>
<line x1="154.5" y1="2.21739e-08" x2="154.5" y2="702" stroke="#99928c"/>
<line x1="286.5" y1="2.21739e-08" x2="286.5" y2="702" stroke="#99928c"/>
<line x1="418.5" y1="2.21739e-08" x2="418.5" y2="702" stroke="#99928c"/>
<line x1="549.5" y1="2.21739e-08" x2="549.5" y2="702" stroke="#99928c"/>
<line x1="681.5" y1="2.21739e-08" x2="681.5" y2="702" stroke="#99928c"/>
<line x1="813.5" y1="2.21739e-08" x2="813.5" y2="702" stroke="#99928c"/>
<line x1="945.5" y1="2.18557e-08" x2="945.5" y2="702" stroke="#99928c"/>
</svg>
