<svg width="1418" height="702" viewBox="0 0 1418 702" fill="none" xmlns="http://www.w3.org/2000/svg">
<line x1="32.7607" y1="1.49044e-08" x2="32.7607" y2="702" stroke="#F4FFFD"/>
<line x1="1418" y1="34.7845" y2="34.7845" stroke="#F4FFFD"/>
<line x1="1418" y1="140.275" y2="140.275" stroke="#F4FFFD"/>
<line x1="1418" y1="245.766" y2="245.766" stroke="#F4FFFD"/>
<line x1="1418" y1="351.257" y2="351.257" stroke="#F4FFFD"/>
<line x1="1418" y1="456.748" y2="456.748" stroke="#F4FFFD"/>
<line x1="1418" y1="562.239" y2="562.239" stroke="#F4FFFD"/>
<line x1="1418" y1="667.73" y2="667.73" stroke="#F4FFFD"/>
<line x1="226.324" y1="1.51214e-08" x2="226.324" y2="702" stroke="#F4FFFD"/>
<line x1="419.888" y1="1.51214e-08" x2="419.888" y2="702" stroke="#F4FFFD"/>
<line x1="613.451" y1="1.51214e-08" x2="613.451" y2="702" stroke="#F4FFFD"/>
<line x1="805.549" y1="1.51214e-08" x2="805.549" y2="702" stroke="#F4FFFD"/>
<line x1="999.112" y1="1.51214e-08" x2="999.112" y2="702" stroke="#F4FFFD"/>
<line x1="1192.68" y1="1.51214e-08" x2="1192.68" y2="702" stroke="#F4FFFD"/>
<line x1="1386.24" y1="1.49044e-08" x2="1386.24" y2="702" stroke="#F4FFFD"/>
</svg>
